<mxfile host="app.diagrams.net" agent="Mozilla/5.0 (Windows NT 10.0; Win64; x64) AppleWebKit/537.36 (KHTML, like Gecko) Chrome/128.0.0.0 Safari/537.36 OPR/114.0.0.0" version="24.9.1">
  <diagram name="Page-1" id="58cdce13-f638-feb5-8d6f-7d28b1aa9fa0">
    <mxGraphModel dx="1138" dy="529" grid="1" gridSize="10" guides="1" tooltips="1" connect="1" arrows="1" fold="1" page="1" pageScale="1" pageWidth="1100" pageHeight="850" background="none" math="0" shadow="0">
      <root>
        <mxCell id="0" />
        <mxCell id="1" parent="0" />
        <mxCell id="382b91b5511bd0f7-1" value="" style="ellipse;html=1;shape=startState;fillColor=#000000;strokeColor=#ff0000;rounded=1;shadow=0;comic=0;labelBackgroundColor=none;fontFamily=Verdana;fontSize=12;fontColor=#000000;align=center;direction=south;" parent="1" vertex="1">
          <mxGeometry x="130" y="135" width="30" height="30" as="geometry" />
        </mxCell>
        <mxCell id="382b91b5511bd0f7-6" value="Button_State" style="rounded=1;whiteSpace=wrap;html=1;arcSize=24;fillColor=#ffffc0;strokeColor=#ff0000;shadow=0;comic=0;labelBackgroundColor=none;fontFamily=Verdana;fontSize=12;fontColor=#000000;align=center;" parent="1" vertex="1">
          <mxGeometry x="240" y="120" width="120" height="60" as="geometry" />
        </mxCell>
        <mxCell id="2a3bc250acf0617d-9" style="edgeStyle=orthogonalEdgeStyle;html=1;labelBackgroundColor=none;endArrow=open;endSize=8;strokeColor=#ff0000;fontFamily=Verdana;fontSize=12;align=left;" parent="1" source="382b91b5511bd0f7-1" target="382b91b5511bd0f7-6" edge="1">
          <mxGeometry relative="1" as="geometry" />
        </mxCell>
        <mxCell id="mnDcK3QQoXMXQ6P5JErJ-1" value="Initialization" style="text;html=1;align=center;verticalAlign=middle;resizable=0;points=[];autosize=1;strokeColor=none;fillColor=none;" vertex="1" parent="1">
          <mxGeometry x="150" y="130" width="90" height="30" as="geometry" />
        </mxCell>
        <mxCell id="mnDcK3QQoXMXQ6P5JErJ-23" style="edgeStyle=orthogonalEdgeStyle;rounded=0;orthogonalLoop=1;jettySize=auto;html=1;exitX=0.25;exitY=0;exitDx=0;exitDy=0;entryX=0.25;entryY=1;entryDx=0;entryDy=0;" edge="1" parent="1" source="mnDcK3QQoXMXQ6P5JErJ-21" target="382b91b5511bd0f7-6">
          <mxGeometry relative="1" as="geometry" />
        </mxCell>
        <mxCell id="mnDcK3QQoXMXQ6P5JErJ-25" value="OK Message" style="edgeLabel;html=1;align=center;verticalAlign=middle;resizable=0;points=[];" vertex="1" connectable="0" parent="mnDcK3QQoXMXQ6P5JErJ-23">
          <mxGeometry x="0.0351" y="-2" relative="1" as="geometry">
            <mxPoint as="offset" />
          </mxGeometry>
        </mxCell>
        <mxCell id="mnDcK3QQoXMXQ6P5JErJ-24" style="edgeStyle=orthogonalEdgeStyle;rounded=0;orthogonalLoop=1;jettySize=auto;html=1;exitX=0.75;exitY=0;exitDx=0;exitDy=0;entryX=0.75;entryY=1;entryDx=0;entryDy=0;" edge="1" parent="1">
          <mxGeometry relative="1" as="geometry">
            <mxPoint x="350" y="300" as="sourcePoint" />
            <mxPoint x="350" y="180" as="targetPoint" />
          </mxGeometry>
        </mxCell>
        <mxCell id="mnDcK3QQoXMXQ6P5JErJ-26" value="SOS Message" style="edgeLabel;html=1;align=center;verticalAlign=middle;resizable=0;points=[];" vertex="1" connectable="0" parent="mnDcK3QQoXMXQ6P5JErJ-24">
          <mxGeometry x="0.058" y="1" relative="1" as="geometry">
            <mxPoint y="3" as="offset" />
          </mxGeometry>
        </mxCell>
        <mxCell id="mnDcK3QQoXMXQ6P5JErJ-21" value="Button Pressed" style="rounded=1;whiteSpace=wrap;html=1;arcSize=24;fillColor=#ffffc0;strokeColor=#ff0000;shadow=0;comic=0;labelBackgroundColor=none;fontFamily=Verdana;fontSize=12;fontColor=#000000;align=center;" vertex="1" parent="1">
          <mxGeometry x="240" y="300" width="120" height="60" as="geometry" />
        </mxCell>
        <mxCell id="mnDcK3QQoXMXQ6P5JErJ-27" value="if BUTON_STATE == SOS" style="text;html=1;align=center;verticalAlign=middle;resizable=0;points=[];autosize=1;strokeColor=none;fillColor=none;" vertex="1" parent="1">
          <mxGeometry x="110" y="270" width="160" height="30" as="geometry" />
        </mxCell>
        <mxCell id="mnDcK3QQoXMXQ6P5JErJ-28" value="if BUTTON_STATE == OK" style="text;html=1;align=center;verticalAlign=middle;resizable=0;points=[];autosize=1;strokeColor=none;fillColor=none;" vertex="1" parent="1">
          <mxGeometry x="350" y="270" width="160" height="30" as="geometry" />
        </mxCell>
        <mxCell id="mnDcK3QQoXMXQ6P5JErJ-30" style="edgeStyle=orthogonalEdgeStyle;rounded=0;orthogonalLoop=1;jettySize=auto;html=1;exitX=0;exitY=0.5;exitDx=0;exitDy=0;entryX=1;entryY=0.5;entryDx=0;entryDy=0;" edge="1" parent="1" source="mnDcK3QQoXMXQ6P5JErJ-29" target="382b91b5511bd0f7-6">
          <mxGeometry relative="1" as="geometry" />
        </mxCell>
        <mxCell id="mnDcK3QQoXMXQ6P5JErJ-32" style="edgeStyle=orthogonalEdgeStyle;rounded=0;orthogonalLoop=1;jettySize=auto;html=1;exitX=1;exitY=0;exitDx=0;exitDy=0;" edge="1" parent="1" source="mnDcK3QQoXMXQ6P5JErJ-29">
          <mxGeometry relative="1" as="geometry">
            <mxPoint x="879.9310344827586" y="119.9655172413793" as="targetPoint" />
          </mxGeometry>
        </mxCell>
        <mxCell id="mnDcK3QQoXMXQ6P5JErJ-37" style="edgeStyle=orthogonalEdgeStyle;rounded=0;orthogonalLoop=1;jettySize=auto;html=1;exitX=1;exitY=0.5;exitDx=0;exitDy=0;" edge="1" parent="1" source="mnDcK3QQoXMXQ6P5JErJ-29">
          <mxGeometry relative="1" as="geometry">
            <mxPoint x="1030" y="150.31034482758628" as="targetPoint" />
          </mxGeometry>
        </mxCell>
        <mxCell id="mnDcK3QQoXMXQ6P5JErJ-29" value="CURRENT_MESSAGE" style="rounded=1;whiteSpace=wrap;html=1;arcSize=24;fillColor=#ffffc0;strokeColor=#ff0000;shadow=0;comic=0;labelBackgroundColor=none;fontFamily=Verdana;fontSize=12;fontColor=#000000;align=center;" vertex="1" parent="1">
          <mxGeometry x="730" y="120" width="150" height="60" as="geometry" />
        </mxCell>
        <mxCell id="mnDcK3QQoXMXQ6P5JErJ-31" value="CURRENT_MESSAGE == complete" style="text;html=1;align=center;verticalAlign=middle;resizable=0;points=[];autosize=1;strokeColor=none;fillColor=none;" vertex="1" parent="1">
          <mxGeometry x="440" y="130" width="220" height="30" as="geometry" />
        </mxCell>
        <mxCell id="mnDcK3QQoXMXQ6P5JErJ-35" style="edgeStyle=orthogonalEdgeStyle;rounded=0;orthogonalLoop=1;jettySize=auto;html=1;exitX=0.5;exitY=0;exitDx=0;exitDy=0;entryX=0;entryY=0.25;entryDx=0;entryDy=0;curved=1;" edge="1" parent="1" source="mnDcK3QQoXMXQ6P5JErJ-29" target="mnDcK3QQoXMXQ6P5JErJ-29">
          <mxGeometry relative="1" as="geometry">
            <Array as="points">
              <mxPoint x="805" y="80" />
              <mxPoint x="710" y="80" />
              <mxPoint x="710" y="135" />
            </Array>
          </mxGeometry>
        </mxCell>
        <mxCell id="mnDcK3QQoXMXQ6P5JErJ-36" value="CURRENT_MESSAGE != complete" style="text;html=1;align=center;verticalAlign=middle;resizable=0;points=[];autosize=1;strokeColor=none;fillColor=none;" vertex="1" parent="1">
          <mxGeometry x="670" y="50" width="210" height="30" as="geometry" />
        </mxCell>
        <mxCell id="mnDcK3QQoXMXQ6P5JErJ-44" style="edgeStyle=orthogonalEdgeStyle;rounded=0;orthogonalLoop=1;jettySize=auto;html=1;exitX=0.5;exitY=1;exitDx=0;exitDy=0;" edge="1" parent="1" source="mnDcK3QQoXMXQ6P5JErJ-39" target="mnDcK3QQoXMXQ6P5JErJ-43">
          <mxGeometry relative="1" as="geometry" />
        </mxCell>
        <mxCell id="mnDcK3QQoXMXQ6P5JErJ-47" value="if LED_STATE != red" style="edgeLabel;html=1;align=center;verticalAlign=middle;resizable=0;points=[];" vertex="1" connectable="0" parent="mnDcK3QQoXMXQ6P5JErJ-44">
          <mxGeometry x="-0.0853" y="2" relative="1" as="geometry">
            <mxPoint as="offset" />
          </mxGeometry>
        </mxCell>
        <mxCell id="mnDcK3QQoXMXQ6P5JErJ-39" value="LED_RED" style="rounded=1;whiteSpace=wrap;html=1;arcSize=24;fillColor=#ffffc0;strokeColor=#ff0000;shadow=0;comic=0;labelBackgroundColor=none;fontFamily=Verdana;fontSize=12;fontColor=#000000;align=center;" vertex="1" parent="1">
          <mxGeometry x="1030" y="120" width="120" height="60" as="geometry" />
        </mxCell>
        <mxCell id="mnDcK3QQoXMXQ6P5JErJ-40" style="edgeStyle=orthogonalEdgeStyle;rounded=0;orthogonalLoop=1;jettySize=auto;html=1;exitX=0.5;exitY=0;exitDx=0;exitDy=0;entryX=1;entryY=0.25;entryDx=0;entryDy=0;curved=1;" edge="1" parent="1" source="mnDcK3QQoXMXQ6P5JErJ-39" target="mnDcK3QQoXMXQ6P5JErJ-39">
          <mxGeometry relative="1" as="geometry" />
        </mxCell>
        <mxCell id="mnDcK3QQoXMXQ6P5JErJ-42" value="if LED_STATE == red" style="text;html=1;align=center;verticalAlign=middle;resizable=0;points=[];autosize=1;strokeColor=none;fillColor=none;" vertex="1" parent="1">
          <mxGeometry x="1070" y="68" width="140" height="30" as="geometry" />
        </mxCell>
        <mxCell id="mnDcK3QQoXMXQ6P5JErJ-49" style="edgeStyle=orthogonalEdgeStyle;rounded=0;orthogonalLoop=1;jettySize=auto;html=1;exitX=0;exitY=0.5;exitDx=0;exitDy=0;entryX=1;entryY=0.5;entryDx=0;entryDy=0;" edge="1" parent="1" source="mnDcK3QQoXMXQ6P5JErJ-43" target="mnDcK3QQoXMXQ6P5JErJ-48">
          <mxGeometry relative="1" as="geometry" />
        </mxCell>
        <mxCell id="mnDcK3QQoXMXQ6P5JErJ-43" value="LED_GREEN" style="rounded=1;whiteSpace=wrap;html=1;arcSize=24;fillColor=#ffffc0;strokeColor=#ff0000;shadow=0;comic=0;labelBackgroundColor=none;fontFamily=Verdana;fontSize=12;fontColor=#000000;align=center;" vertex="1" parent="1">
          <mxGeometry x="1030" y="290" width="120" height="60" as="geometry" />
        </mxCell>
        <mxCell id="mnDcK3QQoXMXQ6P5JErJ-45" style="edgeStyle=orthogonalEdgeStyle;rounded=0;orthogonalLoop=1;jettySize=auto;html=1;exitX=1;exitY=0.75;exitDx=0;exitDy=0;entryX=0.5;entryY=1;entryDx=0;entryDy=0;curved=1;" edge="1" parent="1" source="mnDcK3QQoXMXQ6P5JErJ-43" target="mnDcK3QQoXMXQ6P5JErJ-43">
          <mxGeometry relative="1" as="geometry" />
        </mxCell>
        <mxCell id="mnDcK3QQoXMXQ6P5JErJ-46" value="if LED_STATE == green" style="text;html=1;align=center;verticalAlign=middle;resizable=0;points=[];autosize=1;strokeColor=none;fillColor=none;" vertex="1" parent="1">
          <mxGeometry x="1055" y="368" width="150" height="30" as="geometry" />
        </mxCell>
        <mxCell id="mnDcK3QQoXMXQ6P5JErJ-54" style="edgeStyle=orthogonalEdgeStyle;rounded=0;orthogonalLoop=1;jettySize=auto;html=1;exitX=0.5;exitY=0;exitDx=0;exitDy=0;" edge="1" parent="1" source="mnDcK3QQoXMXQ6P5JErJ-48" target="mnDcK3QQoXMXQ6P5JErJ-29">
          <mxGeometry relative="1" as="geometry" />
        </mxCell>
        <mxCell id="mnDcK3QQoXMXQ6P5JErJ-48" value="LED_OFF" style="rounded=1;whiteSpace=wrap;html=1;arcSize=24;fillColor=#ffffc0;strokeColor=#ff0000;shadow=0;comic=0;labelBackgroundColor=none;fontFamily=Verdana;fontSize=12;fontColor=#000000;align=center;" vertex="1" parent="1">
          <mxGeometry x="745" y="290" width="120" height="60" as="geometry" />
        </mxCell>
        <mxCell id="mnDcK3QQoXMXQ6P5JErJ-50" value="if LED_STATE != green" style="text;html=1;align=center;verticalAlign=middle;resizable=0;points=[];autosize=1;strokeColor=none;fillColor=none;" vertex="1" parent="1">
          <mxGeometry x="880" y="290" width="150" height="30" as="geometry" />
        </mxCell>
        <mxCell id="mnDcK3QQoXMXQ6P5JErJ-51" style="edgeStyle=orthogonalEdgeStyle;rounded=0;orthogonalLoop=1;jettySize=auto;html=1;exitX=0;exitY=0.75;exitDx=0;exitDy=0;entryX=0.448;entryY=1.063;entryDx=0;entryDy=0;entryPerimeter=0;curved=1;" edge="1" parent="1" source="mnDcK3QQoXMXQ6P5JErJ-48" target="mnDcK3QQoXMXQ6P5JErJ-48">
          <mxGeometry relative="1" as="geometry" />
        </mxCell>
        <mxCell id="mnDcK3QQoXMXQ6P5JErJ-52" value="if LED_STATE == off" style="text;html=1;align=center;verticalAlign=middle;resizable=0;points=[];autosize=1;strokeColor=none;fillColor=none;" vertex="1" parent="1">
          <mxGeometry x="700" y="368" width="130" height="30" as="geometry" />
        </mxCell>
        <mxCell id="mnDcK3QQoXMXQ6P5JErJ-56" value="Timer Loop" style="shape=umlFrame;whiteSpace=wrap;html=1;pointerEvents=0;" vertex="1" parent="1">
          <mxGeometry x="650" y="15" width="690" height="410" as="geometry" />
        </mxCell>
      </root>
    </mxGraphModel>
  </diagram>
</mxfile>
